inDegrees=no
num_controls=7
num_derivatives=13
num_iterations=204
num_multipliers=7
num_parameters=0
num_slacks=7
num_states=26
objective=0.535807
objective_accelerations=0.008836
objective_balance=0.001729
objective_effort=0.014347
objective_height=0.499474
objective_ligament=0.011420
solver_duration=2615.398524
status=Solve_Succeeded
success=true
DataType=double
version=3
OpenSimVersion=4.5
endheader
time	/jointset/ground_pelvis/pelvis_tilt/value	/jointset/ground_pelvis/pelvis_tx/value	/jointset/ground_pelvis/pelvis_ty/value	/jointset/hip_l/hip_flexion_l/value	/jointset/hip_l/hip_adduction_l/value	/jointset/hip_l/hip_rotation_l/value	/jointset/back/lumbar_extension/value	/jointset/patellofemoral_l/patellar_flexion_l/value	/jointset/knee_l/knee_flexion_l/value	/jointset/knee_l/knee_adduction_l/value	/jointset/knee_l/knee_rotation_l/value	/jointset/ankle_l/ankle_angle_l/value	/jointset/subtalar_l/subtalar_angle_l/value	/jointset/ground_pelvis/pelvis_tilt/speed	/jointset/ground_pelvis/pelvis_tx/speed	/jointset/ground_pelvis/pelvis_ty/speed	/jointset/hip_l/hip_flexion_l/speed	/jointset/hip_l/hip_adduction_l/speed	/jointset/hip_l/hip_rotation_l/speed	/jointset/back/lumbar_extension/speed	/jointset/patellofemoral_l/patellar_flexion_l/speed	/jointset/knee_l/knee_flexion_l/speed	/jointset/knee_l/knee_adduction_l/speed	/jointset/knee_l/knee_rotation_l/speed	/jointset/ankle_l/ankle_angle_l/speed	/jointset/subtalar_l/subtalar_angle_l/speed	/forceset/tau_hip_flexion_l	/forceset/tau_hip_adduction_l	/forceset/tau_hip_rotation_l	/forceset/tau_knee_flexion_l	/forceset/tau_ankle_angle_l	/forceset/tau_subtalar_angle_l	/forceset/tau_lumbar_extension	lambda_cid13_p0	lambda_cid13_p1	lambda_cid13_p2	lambda_cid13_p3	lambda_cid13_p4	lambda_cid13_p5	lambda_cid14_p0	/jointset/ground_pelvis/pelvis_tilt/accel	/jointset/ground_pelvis/pelvis_tx/accel	/jointset/ground_pelvis/pelvis_ty/accel	/jointset/hip_l/hip_flexion_l/accel	/jointset/hip_l/hip_adduction_l/accel	/jointset/hip_l/hip_rotation_l/accel	/jointset/back/lumbar_extension/accel	/jointset/patellofemoral_l/patellar_flexion_l/accel	/jointset/knee_l/knee_flexion_l/accel	/jointset/knee_l/knee_adduction_l/accel	/jointset/knee_l/knee_rotation_l/accel	/jointset/ankle_l/ankle_angle_l/accel	/jointset/subtalar_l/subtalar_angle_l/accel	gamma_cid13_p0	gamma_cid13_p1	gamma_cid13_p2	gamma_cid13_p3	gamma_cid13_p4	gamma_cid13_p5	gamma_cid14_p0
0.5	0.009753087944296072	0.02325474641162448	0.9167242626369877	0.333919551395329	-0.2956711364260589	-0.2832265446127431	-0.627409869557334	0.3064057435554157	0.3064057435554243	-0.157188225533826	-0.1745241002038048	-0.01132936855899053	-0.00345171483570852	0.1559561123771814	-0.08134413903784916	-0.005951003148772538	0.00682645005583511	0.00490551598983521	0.03685506346060322	-0.6384349591436556	0.124351173742174	0.1243511737421759	0.04760829658199771	-1.701485390200832e-05	-0.02543864945702007	-0.004150146064964262	-0.1328394986062031	0.017243649858022	-0.002054374233433463	-0.1117376044802167	0.07800557215645335	0.03866515109982786	0.2200537834577189	-20.26330487829369	-16.23242641214204	5.546724711499992	0.3240393574125912	-706.2742458343963	-86.00350448510547	-23.65859956427084	0.1113751015306167	0.1214190268838805	0.04113741065294589	-0.4624522021782618	0.03434643442716427	-0.110529687476693	0.4192521309080025	-0.3035729582490104	-0.3035729582490103	-0.02382255191823649	0.008177178939049318	0.03867282696698432	0.04993656168966689	1.330454688143667e-09	-2.936088011941628e-09	-5.051311995502108e-09	-3.630806023629326e-09	4.772362702051856e-09	1.48873423165511e-09	-2.154853281651543e-10
0.51	0.01131789419412071	0.02244750151648081	0.9166668146682058	0.3339648310212402	-0.2956203603559547	-0.2828637603129947	-0.6337722212703997	0.3076339974667769	0.3076339974667834	-0.1567133098060014	-0.1745240674196849	-0.01158173923498791	-0.003490684946427905	0.1569900344516685	-0.08009121291091846	-0.00553504705938727	0.002210537238603574	0.005248596944734095	0.03568650868401721	-0.6339492343999327	0.1212718010172582	0.1212718010172587	0.04736599571743775	1.629388864159629e-05	-0.02503295793246178	-0.003643981806374435	-0.1348123025071996	0.01776630218896852	-0.001966506703028535	-0.1109821596675958	0.07760206047631438	0.03903845306787375	0.2225944309400993	-20.40585663681055	-16.36122091019522	5.557696646873999	0.2426057945658218	-706.824195951768	-86.01549753842281	-23.6651094509142	0.09713496094066065	0.1292727350188301	0.04235720734098623	-0.4640016802126911	0.03412472011475006	-0.1223108367405082	0.476155006537323	-0.3142905149777819	-0.3142905149778271	-0.0257626769277454	-0.0001847994460463283	0.0418964192438668	0.05094153921604658	1.355112612143731e-09	-2.719962811003251e-09	-5.205398521975249e-09	-3.668609283574488e-09	4.862454783468057e-09	1.574457549419737e-09	-1.843261365857608e-10
0.52	0.01289258650479681	0.0216531945484907	0.9166136327601697	0.3339633833472359	-0.2955661863174827	-0.2825131200538104	-0.6400871312639416	0.308830623433816	0.3088306234338205	-0.156241082851463	-0.1745239200524111	-0.01182997717493098	-0.003524596378306908	0.1579333245474718	-0.07875655360714137	-0.005097790999615186	-0.002519009927312068	0.005585109663371677	0.0344262553477931	-0.6289466152388937	0.118025584877746	0.1180255848777473	0.04707054192476297	5.901776884686929e-06	-0.02461210224615892	-0.003138410296888359	-0.1367851064081961	0.01828895451991503	-0.001878639172623597	-0.1102267148549749	0.0771985487961754	0.03941175503591966	0.2251350784224797	-20.55071945082985	-16.48974945124398	5.568784604857645	0.1599564976046483	-707.412537712897	-86.03112901503295	-23.67129457383705	0.09324870579385586	0.1377656622531526	0.04539740473030904	-0.4851790719151223	0.03303278717490293	-0.1288693994043111	0.5226310143712594	-0.3369416411682684	-0.3369416411682669	-0.03445313754120384	-0.0005629919188553031	0.0417056593158949	0.04981801186891734	1.379937993187399e-09	-2.415931701732871e-09	-5.349510407596077e-09	-3.68020716975603e-09	4.91764966605826e-09	1.65119975251169e-09	-1.369321739587468e-10
0.53	0.01447625921217733	0.02087263222355883	0.9165649282441536	0.3339141196784345	-0.2955086523779114	-0.2821754744331635	-0.6463494699287811	0.3099939897257502	0.3099939897257572	-0.1557720160977709	-0.1745240287952207	-0.01207391526819571	-0.003553422235611503	0.1587865718343734	-0.0773432279976152	-0.004639586959462685	-0.00734963041679337	0.005923050777491569	0.03309388733060104	-0.6234390372371641	0.1146218518152837	0.1146218518152883	0.0467387663090106	-2.828633300287243e-05	-0.02417214984768313	-0.002624119077656716	-0.1386653315591743	0.01880649345782206	-0.001799714912549412	-0.1095206562703037	0.07684681548454687	0.03974630106675209	0.227596062854361	-20.67811063270976	-16.60464766386559	5.577861961934627	0.07702926139861575	-707.9583759893146	-86.02807768956481	-23.67716975139277	0.07916563232011681	0.1450177802852911	0.04656167960693079	-0.4843897131005482	0.034381538178813	-0.1367669264303443	0.5771332668529535	-0.3459623704490678	-0.3459623704490279	-0.03314689277994184	-0.004943050656473914	0.04564495709988112	0.05263196759974122	1.409336507603158e-09	-1.987305973009804e-09	-5.413769738068239e-09	-3.667799792462455e-09	4.919500142475778e-09	1.727077655262564e-09	-7.553184638677561e-11
